<?xml version="1.0" encoding="utf-8"?>
<!-- Generator: Adobe Illustrator 24.1.0, SVG Export Plug-In . SVG Version: 6.00 Build 0)  -->
<svg version="1.1" id="Livello_1" xmlns="http://www.w3.org/2000/svg" xmlns:xlink="http://www.w3.org/1999/xlink" x="0px" y="0px"
	 viewBox="0 0 48 48" style="enable-background:new 0 0 48 48;" xml:space="preserve">
<style type="text/css">
	.st0{fill:none;stroke:#1E1E1C;stroke-width:10;stroke-linecap:round;stroke-linejoin:round;stroke-miterlimit:10;}
	.st1{fill:#FEEB17;}
	.st2{fill:#E63523;}
	.st3{fill:#67B32E;}
	.st4{fill:#439CD6;}
</style>
<g>
	<g>
		<path class="st0" d="M38.1,18.4"/>
	</g>
	<g>
		<path class="st1" d="M31.7,41.8L18.1,28.2l7.8-7.8c0.5-0.5,0.7-1.1,0.7-1.7s-0.3-1.3-0.7-1.7c-0.4-0.4-0.9-0.6-1.4-0.7
			c-0.8-0.2-1.7,0-2.3,0.7l-7.7,7.7l-5.2-5.2l15-15c0.5-0.5,0.7-1.1,0.7-1.7s-0.3-1.3-0.7-1.7c-1-1-2.5-1-3.5,0L4.1,17.7
			c-0.5,0.5-0.7,1.1-0.7,1.7s0.3,1.3,0.7,1.7l6.9,6.9l-7.1,7.1c-0.5,0.5-0.7,1.1-0.7,1.7c0,0.7,0.3,1.3,0.7,1.7
			c0.4,0.4,0.9,0.6,1.4,0.7c0.2,0,0.4,0.1,0.6,0.1c0.7,0,1.3-0.3,1.7-0.7l7-7l13.6,13.6c0.5,0.5,1.1,0.7,1.7,0.7
			c0.7,0,1.3-0.3,1.7-0.7c0.5-0.5,0.7-1.1,0.7-1.7C32.5,42.9,32.2,42.3,31.7,41.8z"/>
	</g>
	<path class="st2" d="M41.3,17.5L24.6,0.7c-1-1-2.5-1-3.5,0c-0.5,0.5-0.7,1.1-0.7,1.7s0.3,1.3,0.7,1.7l15,15l-15,15
		c-0.5,0.5-0.7,1.1-0.7,1.7c0,0.7,0.3,1.3,0.7,1.7c0.5,0.5,1.1,0.7,1.7,0.7c0.7,0,1.3-0.3,1.7-0.7L41.3,21c0.5-0.5,0.7-1.1,0.7-1.7
		C42.1,18.6,41.8,18,41.3,17.5z"/>
	<path class="st3" d="M43.3,21.9l-0.5-0.5L41.2,23h0l0.5,0.5c1.2,1.2,1.2,3.1,0,4.3c-1.2,1.2-3.1,1.2-4.3,0l-0.5-0.5L35.2,29
		l0.5,0.5c1,1,2.4,1.6,3.8,1.6c1.4,0,2.8-0.6,3.8-1.6c1-1,1.6-2.4,1.6-3.8C44.9,24.3,44.3,22.9,43.3,21.9z"/>
	<g>
		<path class="st4" d="M7,48c-0.6,0-1.3-0.2-1.7-0.7c-1-1-1-2.5,0-3.5l15.3-15.3H8c-1,0-1.9-0.6-2.3-1.5c-0.4-0.9-0.2-2,0.5-2.7
			L24.8,5.7c1-1,2.5-1,3.5,0c1,1,1,2.5,0,3.5L14,23.5h12.6c1,0,1.9,0.6,2.3,1.5c0.4,0.9,0.2,2-0.5,2.7L8.8,47.3
			C8.3,47.8,7.6,48,7,48z"/>
	</g>
	<path class="st2" d="M42.5,38.2c-0.1-0.6-0.4-1.1-0.9-1.4L20.4,15.5c-0.5-0.7-1.2-1.1-1.9-1.1c-0.7-0.1-1.5,0.2-2,0.8
		c-0.5,0.5-0.8,1.2-0.8,1.9c0,0.7,0.3,1.4,0.8,1.9l21.4,21.4c0.5,0.5,1.2,0.8,1.9,0.8c0.7,0,1.4-0.3,1.9-0.8
		C42.4,39.9,42.7,39,42.5,38.2z"/>
	<path d="M41.2,24.1l-0.5-0.5l-0.3,0.3l-3,3l0.5,0.5c0.9,0.9,2.4,0.9,3.3,0C42.1,26.5,42.1,25,41.2,24.1z"/>
</g>
</svg>
